# xmcd
#
# Track frame offsets:
#   150
#   14187
#   27382
#   39812
#   52045
#   65245
#   77215
#   93995
#   109922
#   126150
#   139735
#   154495
#   169342
#   182845
#   194610
#   209795
#   224509
#   238930
#   251992
#   273157
#   288522
#   302250
#   313485
#   328535
#   339325
#
# Disc length: 4712 seconds
#
# Revision: 0
# Processed by: cddbd v1.5.2PL0 Copyright (c) Steve Scherf et al.
# Submitted via: GXTranscoder 2.0.1939
#
DISCID=95126619
DTITLE=25 sucessos - Sertanejas de ouro
DYEAR=2007
DGENRE=Country
TTITLE0=Saudade da minha terra
TTITLE1=fio de cabelo
TTITLE2=Chalana
TTITLE3=A moca da chamame
TTITLE4=Nao aprendi dizer adeus
TTITLE5=Cauboy sentimental
TTITLE6=ciganinha
TTITLE7=sentimento
TTITLE8=Chico mulato
TTITLE9=Os verdes campos da minha terra
TTITLE10=Pe de cedro
TTITLE11=Se deus me ouvisse
TTITLE12=Rio de lágrimas
TTITLE13=Viola cabocla
TTITLE14=Relogio quebrado
TTITLE15=Panela velha
TTITLE16=Fuscao preto
TTITLE17=Disco voador
TTITLE18=te amarei toda a vida
TTITLE19=menino da porteira
TTITLE20=Meu velho pai
TTITLE21=La paloma
TTITLE22=Coraçao vagabundo
TTITLE23=mercedita
TTITLE24=Filho prodigo
EXTD=
EXTT0=
EXTT1=
EXTT2=
EXTT3=
EXTT4=
EXTT5=
EXTT6=
EXTT7=
EXTT8=
EXTT9=
EXTT10=
EXTT11=
EXTT12=
EXTT13=
EXTT14=
EXTT15=
EXTT16=
EXTT17=
EXTT18=
EXTT19=
EXTT20=
EXTT21=
EXTT22=
EXTT23=
EXTT24=
PLAYORDER=
